<?xml version="1.0" encoding="UTF-8"?>
<svg version="1.1" xmlns="http://www.w3.org/2000/svg" width="512" height="512">
<path d="M0 0 C0.77806503 -0.00671722 1.55613007 -0.01343445 2.35777283 -0.02035522 C4.91647825 -0.03927135 7.47492052 -0.04325606 10.03369141 -0.04541016 C11.82199204 -0.05184216 13.61029163 -0.05857082 15.39859009 -0.06558228 C19.1425419 -0.07753881 22.88640155 -0.08126474 26.63037109 -0.08007812 C31.41409574 -0.07987495 36.19722625 -0.10718309 40.98081017 -0.14162254 C44.6732756 -0.16392229 48.36559868 -0.16791474 52.05812454 -0.16685867 C53.82108229 -0.16920976 55.58404425 -0.17800546 57.34693527 -0.19352341 C59.81894645 -0.21324777 62.28968453 -0.20732109 64.76171875 -0.1953125 C65.48094009 -0.20655151 66.20016144 -0.21779053 66.94117737 -0.22937012 C72.90060983 -0.15626655 78.01342132 1.66998946 82.54395103 5.63164711 C88.81857932 12.5147786 88.26831095 20.55959741 88.01025391 29.29052734 C88.82623047 29.05978516 89.64220703 28.82904297 90.48291016 28.59130859 C121.33436535 20.09792648 151.32746306 14.61998016 182.90087891 22.57568359 C183.90380478 22.82783127 184.90673065 23.07997894 185.94004822 23.33976746 C203.30721041 27.81521754 220.4608306 33.10698177 237.64471436 38.23052979 C243.44560709 39.95908046 249.24837566 41.68132096 255.05115318 43.40353203 C259.7561402 44.79998819 264.46059687 46.1981614 269.16372681 47.6008606 C277.55407468 50.10044706 285.94915423 52.57375221 294.37695312 54.94433594 C295.81373348 55.35098567 297.25049652 55.75769659 298.6872406 56.16447449 C301.27487394 56.89656787 303.86509147 57.61369723 306.45936584 58.32246399 C313.80568589 60.39606788 321.15613806 62.68515615 326.84513855 68.00698853 C330.05354878 69.90902071 331.98844737 69.09470628 335.57177734 68.26538086 C336.22538113 68.11882585 336.87898491 67.97227083 337.55239487 67.82127476 C339.71015989 67.33087927 341.85990395 66.81241137 344.01025391 66.29052734 C345.4877081 65.94249022 346.96528976 65.59499383 348.44299316 65.24801636 C352.44963798 64.29793743 356.44866206 63.31877068 360.44605255 62.33054924 C363.09591084 61.67556069 365.74676699 61.02475002 368.39788818 60.37489319 C374.97210247 58.76252874 381.54463607 57.14335783 388.1171875 55.52423096 C393.70131386 54.14886627 399.28609445 52.77621734 404.87175751 51.4071064 C407.46401745 50.77056154 410.0552928 50.13011772 412.64654541 49.48948669 C449.29676298 40.47315167 449.29676298 40.47315167 463.22509766 48.57958984 C468.66460799 52.36800113 472.88010573 56.90008283 475.01025391 63.29052734 C475.89944999 75.31653996 474.80687782 84.10468152 466.88525391 93.54052734 C457.89499878 103.65032368 443.74133638 108.14519296 431.63525391 113.41552734 C429.69145028 114.26744721 427.74784841 115.11982754 425.80444336 115.97265625 C413.10080644 121.53968906 400.36834984 127.03859154 387.60791016 132.47412109 C380.43755385 135.52929767 373.28533812 138.62581357 366.13525391 141.72802734 C365.5117807 141.99846863 364.8883075 142.26890991 364.24594116 142.54754639 C361.09464332 143.91450329 357.94351047 145.28183988 354.79248047 146.64941406 C351.02967683 148.28234029 347.26616188 149.91362188 343.50244141 151.54443359 C342.57444481 151.94659088 342.57444481 151.94659088 341.62770081 152.35687256 C338.51233313 153.70684746 335.39667412 155.05614384 332.28051758 156.40429688 C325.91186792 159.16048572 319.54874095 161.9285376 313.19384766 164.71630859 C261.36371002 187.42836861 261.36371002 187.42836861 233.90893555 187.58569336 C232.54131597 187.59705685 231.17373495 187.61725091 229.80639648 187.6472168 C207.54260889 188.13244972 186.63422761 181.12386246 165.48467255 174.92322159 C161.83234536 173.85435325 158.17724269 172.79505755 154.52246094 171.73461914 C147.33304632 169.64688718 140.14679191 167.54847073 132.96160889 165.44622803 C128.20369786 164.05422047 123.44447265 162.66672732 118.68528748 161.27908325 C108.45636559 158.29616862 98.23111824 155.30093292 88.01025391 152.29052734 C88.02258057 153.02875732 88.03490723 153.7669873 88.04760742 154.52758789 C88.05719482 155.5051001 88.06678223 156.4826123 88.07666016 157.48974609 C88.09515015 158.93740356 88.09515015 158.93740356 88.11401367 160.41430664 C87.92728829 165.59033414 86.8483809 170.07717547 83.49853516 174.11083984 C77.6380221 179.56309244 71.04255637 180.59334815 63.19824219 180.56518555 C62.45089813 180.57029648 61.70355408 180.57540741 60.93356323 180.58067322 C58.48248101 180.59448293 56.03168272 180.5936189 53.58056641 180.59130859 C51.86335141 180.59520046 50.14613737 180.59953614 48.42892456 180.60429382 C44.83637364 180.61173766 41.24392103 180.61147826 37.65136719 180.60620117 C33.06627519 180.60041114 28.48158775 180.61733512 23.89656258 180.64054585 C20.3516101 180.65533709 16.80675384 180.65614754 13.26177597 180.65303612 C11.57222569 180.65354669 9.88266965 180.65873449 8.19314957 180.66884804 C-11.62094526 180.77290482 -11.62094526 180.77290482 -18.14599609 175.57177734 C-18.58943359 174.98396484 -19.03287109 174.39615234 -19.48974609 173.79052734 C-19.95380859 173.20271484 -20.41787109 172.61490234 -20.89599609 172.00927734 C-23.18195304 168.41705928 -23.12128745 165.22757259 -23.13691711 161.08573914 C-23.14407242 159.78609222 -23.15122772 158.48644531 -23.15859985 157.14741516 C-23.16144009 155.70382714 -23.16415182 154.26023887 -23.16674805 152.81665039 C-23.17301338 151.29886723 -23.17966024 149.78108561 -23.18666077 148.26330566 C-23.20769329 143.27629666 -23.21806159 138.28928737 -23.22802734 133.30224609 C-23.23207504 131.58526913 -23.23619196 129.86829232 -23.24037743 128.15131569 C-23.2594264 120.08567974 -23.2736587 112.02005293 -23.2819894 103.95439881 C-23.29176468 94.64390824 -23.31809294 85.33365523 -23.35849029 76.02324837 C-23.38864503 68.82654864 -23.40345761 61.62991704 -23.40677041 54.43315536 C-23.40912142 50.13485634 -23.41808845 45.8368112 -23.44323158 41.53857994 C-23.46650657 37.49443512 -23.47074803 33.45071146 -23.4604702 29.40651703 C-23.4599746 27.9238552 -23.46630219 26.44117268 -23.48002625 24.9585743 C-23.49774014 22.93121557 -23.48825537 20.90367403 -23.47749329 18.87626648 C-23.47988164 17.74267039 -23.48226999 16.60907431 -23.48473072 15.44112682 C-22.70969428 10.5079849 -20.17700032 7.4152945 -16.61474609 4.04052734 C-11.33435595 0.52026725 -6.21224802 -0.00778493 0 0 Z M-5.98974609 17.29052734 C-6.01307392 36.17890615 -6.03072469 55.06728205 -6.04155827 73.95567226 C-6.04672147 82.7252545 -6.05376463 91.4948278 -6.06518555 100.2644043 C-6.07513164 107.90515637 -6.08159934 115.54590198 -6.08383459 123.18666035 C-6.08514182 127.2349112 -6.08822848 131.28314354 -6.09547615 135.33138847 C-6.10223519 139.13733604 -6.1043633 142.94325736 -6.10285378 146.74921036 C-6.10313016 148.15010406 -6.10513597 149.55099859 -6.10895157 150.95188713 C-6.11388692 152.85642242 -6.11214409 154.76097161 -6.11000061 156.66551208 C-6.1109224 157.73387015 -6.1118442 158.80222822 -6.11279392 159.90296078 C-6.25936567 162.24416636 -6.25936567 162.24416636 -4.98974609 163.29052734 C-2.64720828 163.38545456 -0.33428505 163.41612526 2.00854492 163.40405273 C2.74020874 163.40419876 3.47187256 163.40434479 4.22570801 163.40449524 C6.65522174 163.40379601 9.08465974 163.39600319 11.51416016 163.38818359 C13.19424904 163.38631945 14.87433848 163.38489553 16.5544281 163.38389587 C20.98499034 163.38007042 25.41552 163.3702399 29.84606934 163.35919189 C34.36368367 163.34897837 38.88130324 163.34439838 43.39892578 163.33935547 C52.26938283 163.32861765 61.13981567 163.3115409 70.01025391 163.29052734 C71.34193668 160.62716179 71.13616763 158.61152794 71.13723755 155.62791443 C71.14005737 154.42338623 71.1428772 153.21885803 71.14578247 151.97782898 C71.14383801 150.6360167 71.14178983 149.29420456 71.13964844 147.95239258 C71.14100286 146.54487055 71.14278303 145.13734888 71.1449585 143.72982788 C71.14952751 139.90148007 71.14774555 136.07315912 71.14457941 132.24481082 C71.14205358 128.24540555 71.14439393 124.24600264 71.14596558 120.24659729 C71.1477864 113.53052353 71.14538301 106.81446076 71.140625 100.09838867 C71.13518033 92.32306426 71.13694687 84.54776606 71.14245141 76.77244228 C71.14698236 70.10662182 71.14763324 63.44080926 71.14501274 56.77498776 C71.14345015 52.78936875 71.14325574 48.80376207 71.14654922 44.81814384 C71.14942776 41.07290157 71.14745258 37.32769326 71.14165497 33.58245468 C71.14032737 32.20413711 71.14072148 30.82581669 71.14291763 29.44750023 C71.14562905 27.57372003 71.14163439 25.69993362 71.13723755 23.82615662 C71.13686052 22.77514487 71.1364835 21.72413313 71.13609505 20.64127254 C71.27508888 18.33259674 71.27508888 18.33259674 70.01025391 17.29052734 C67.63724521 17.19558001 65.29346688 17.16493415 62.92016602 17.17700195 C62.17874863 17.17685593 61.43733124 17.1767099 60.67344666 17.17655945 C58.2114677 17.17725869 55.74956347 17.1850516 53.28759766 17.19287109 C51.58508851 17.19473523 49.88257884 17.19615915 48.18006897 17.19715881 C43.69032317 17.20098432 39.20060952 17.21081488 34.71087646 17.22186279 C30.13293899 17.23207621 25.55499635 17.23665628 20.97705078 17.24169922 C11.98810434 17.25243712 2.99918179 17.26951393 -5.98974609 17.29052734 Z M88.01025391 46.29052734 C88.01025391 75.33052734 88.01025391 104.37052734 88.01025391 134.29052734 C109.87887192 140.77431368 109.87887192 140.77431368 131.75634766 147.22802734 C132.45214872 147.4326358 133.14794979 147.63724426 133.86483574 147.84805298 C148.04722586 152.01700403 162.23708922 156.15955742 176.44360352 160.24560547 C178.84596307 160.93730402 181.2476676 161.63128199 183.64868164 162.32763672 C187.00820098 163.30115118 190.37014757 164.26578448 193.73291016 165.22802734 C194.70237076 165.51057373 195.67183136 165.79312012 196.67066956 166.08422852 C208.04949256 169.31425495 219.00817173 170.65888251 230.82275391 170.60302734 C232.05598389 170.59811279 233.28921387 170.59319824 234.55981445 170.58813477 C255.29660428 170.32134886 273.41713958 163.22882731 292.13525391 154.97802734 C293.76451173 154.2658347 295.39407658 153.55434408 297.02392578 152.84350586 C300.38415523 151.37735467 303.74308025 149.9082753 307.10107422 148.43701172 C313.82611409 145.49313862 320.56709355 142.58636651 327.30776978 139.67852783 C345.83582204 131.68259157 364.34387444 123.64035614 382.85473633 115.60473633 C385.09667794 114.63150639 387.33862127 113.65828042 389.58056641 112.68505859 C390.66459244 112.21448532 391.74861847 111.74391205 392.86549377 111.25907898 C400.43513857 107.9734239 408.00614764 104.6909379 415.57885742 101.41235352 C418.00719836 100.36088006 420.43461345 99.30735361 422.86157227 98.25268555 C427.61325905 96.18806725 432.36726943 94.1332852 437.14697266 92.13427734 C437.90131592 91.81523437 438.65565918 91.49619141 439.43286133 91.16748047 C441.27839005 90.38840664 443.12839172 89.61994771 444.97900391 88.85302734 C450.92953852 85.78574146 455.66859657 81.68404119 458.01025391 75.29052734 C458.55762986 72.30788696 458.41702042 70.39212199 458.01025391 67.29052734 C455.55639548 63.83694882 452.93740679 62.65835104 449.01025391 61.29052734 C439.20350029 59.81342151 429.37788594 63.04985696 419.94775391 65.41552734 C418.15582014 65.85548222 416.36357413 66.29416695 414.57104492 66.73168945 C410.61195154 67.69926841 406.65452465 68.67336028 402.69775391 69.65039062 C395.93893024 71.31407959 389.17062665 72.93730435 382.40067863 74.5549469 C378.39818584 75.51151822 374.39627092 76.47050495 370.39426517 77.42911148 C367.08953747 78.22063837 363.78466371 79.01154241 360.47946167 79.80108643 C356.75839204 80.69114568 353.0384863 81.58591575 349.31884766 82.48193359 C348.18854126 82.75130234 347.05823486 83.02067108 345.89367676 83.29820251 C344.86665649 83.54647293 343.83963623 83.79474335 342.78149414 84.05053711 C341.42930031 84.37502586 341.42930031 84.37502586 340.04978943 84.70606995 C338.03370745 85.10542172 338.03370745 85.10542172 337.01025391 86.29052734 C336.76345105 88.455256 336.53817179 90.62245056 336.32275391 92.79052734 C335.09939027 101.5773143 332.04444135 107.0624498 325.19775391 112.66552734 C313.95908174 120.25637534 300.92341777 119.4096382 288.08826733 116.94844627 C283.07445824 115.91664166 278.07921372 114.80889478 273.08447266 113.68896484 C270.88547029 113.20865782 268.68614742 112.72981612 266.48652649 112.25234985 C260.72174704 110.99687488 254.96153567 109.72157135 249.2020874 108.44189453 C243.42401411 107.16179191 237.64177778 105.90080062 231.85986328 104.63818359 C222.06437952 102.49699981 212.27391918 100.33393716 202.48565483 98.16001511 C196.61905648 96.85976505 190.74731807 95.58832495 184.86816406 94.34619141 C183.58375931 94.07175201 182.29935455 93.79731262 180.97602844 93.51455688 C178.73297619 93.03671981 176.48814105 92.56712917 174.24113464 92.10824585 C173.30103043 91.90623566 172.36092621 91.70422546 171.39233398 91.49609375 C170.6058699 91.332836 169.81940582 91.16957825 169.0091095 91.00137329 C166.66492099 90.16771782 165.56958311 89.21155652 164.01025391 87.29052734 C162.98931936 84.30625714 162.91317595 82.67001391 163.69775391 79.60302734 C165.23793542 76.88937421 166.14922808 76.40112511 169.01025391 75.29052734 C175.92620466 75.06106714 183.15832904 77.29243681 189.85717773 78.79077148 C191.00964493 79.04451035 192.16211212 79.29824921 193.34950256 79.55967712 C195.8396118 80.10830488 198.32928143 80.65893097 200.81855202 81.21135139 C204.76576624 82.08643164 208.71443473 82.95460626 212.66374207 83.82017517 C223.88821245 86.28144308 235.11079771 88.75113394 246.32983398 91.23706055 C252.53895253 92.6128049 258.750003 93.97945346 264.96327037 95.33634084 C268.241476 96.05268571 271.51806737 96.77506028 274.79306984 97.50599861 C278.45133232 98.32210231 282.11271488 99.12252457 285.77514648 99.91967773 C286.83995239 100.16122589 287.9047583 100.40277405 289.00183105 100.65164185 C301.7295432 103.41633803 301.7295432 103.41633803 314.07275391 100.60302734 C318.27429559 97.2954307 319.73921408 95.15392618 320.51025391 89.85302734 C319.89214595 85.44900817 318.39875261 83.03334442 315.01025391 80.29052734 C306.85748485 75.50789435 296.98343514 73.46436914 287.97900391 70.85302734 C286.18420704 70.32753122 284.38957343 69.80147726 282.59509277 69.27490234 C277.85811083 67.88649211 273.11897633 66.5055768 268.3793335 65.12628174 C263.71465114 63.76747357 259.0519679 62.40184543 254.38916016 61.03662109 C248.83647848 59.41120379 243.28335305 57.78736491 237.72827148 56.17016602 C229.29557068 53.71488058 220.86516659 51.25309033 212.44641876 48.75030518 C208.7378849 47.64793723 205.02800781 46.55012626 201.31809998 45.45239258 C199.58363597 44.9376877 197.84985027 44.42069009 196.11683655 43.90112305 C182.66373953 39.86867105 169.11035832 36.06474273 155.01025391 35.29052734 C153.86363281 35.21125 153.86363281 35.21125 152.69384766 35.13037109 C131.00312033 34.34964069 108.48162844 41.61135602 88.01025391 46.29052734 Z " fill="#000000" transform="translate(29.98974609375,324.70947265625)"/>
<path d="M0 0 C2.36328125 1.3984375 2.36328125 1.3984375 4.3984375 2.83984375 C6.24603051 4.03197854 6.24603051 4.03197854 8.328125 3.6171875 C10.3087643 2.8327759 11.98578456 1.8839289 13.80078125 0.7734375 C19.15763958 -1.93486262 24.42754511 -2.09380258 30.30078125 -1.1640625 C33.06277144 0.01198603 35.51965787 1.32110732 38.046875 2.9375 C40.33514837 4.11559263 40.33514837 4.11559263 42.9296875 3.0859375 C45.3658246 1.84765037 45.3658246 1.84765037 47.80078125 0.2109375 C53.95649054 -2.20737686 60.82400257 -2.62611828 67.00390625 -0.02734375 C72.97141403 3.73692854 76.27020249 7.89142674 78.61328125 14.5859375 C80.98973185 26.33434445 75.44597268 36.29155978 70.73828125 46.7109375 C69.66941 49.09669472 68.60479859 51.48412347 67.54859924 53.8755188 C66.89437197 55.35486231 66.2325277 56.83086713 65.56211853 58.302948 C64.01454019 61.78348446 63.30078125 63.95902266 63.30078125 67.8359375 C64.76835949 69.25907034 64.76835949 69.25907034 66.81640625 70.31640625 C67.56728516 70.75355957 68.31816406 71.19071289 69.09179688 71.64111328 C69.90326172 72.09728027 70.71472656 72.55344727 71.55078125 73.0234375 C73.21489554 73.99939159 74.87635341 74.97988897 76.53515625 75.96484375 C77.35177734 76.44969238 78.16839844 76.93454102 79.00976562 77.43408203 C87.88739071 82.86623498 95.77650668 89.68350208 103.30078125 96.8359375 C103.82929688 97.3319043 104.3578125 97.82787109 104.90234375 98.33886719 C130.38354235 122.38020354 150.39781329 155.88910521 151.5390625 191.72265625 C152.11569481 226.64752492 142.2806496 256.48820205 118.01269531 282.09277344 C101.0918009 299.32254898 79.58862799 310.78677731 56.30078125 316.8359375 C55.0684375 317.15691406 53.83609375 317.47789062 52.56640625 317.80859375 C33.47505033 321.92971978 11.19066078 322.08092618 -7.69921875 316.8359375 C-8.50053223 316.61550781 -9.3018457 316.39507812 -10.12744141 316.16796875 C-28.93864031 310.80853164 -45.77883609 302.53152986 -60.69921875 289.8359375 C-61.58996094 289.09601563 -62.48070312 288.35609375 -63.3984375 287.59375 C-83.87773896 269.96837875 -98.97546432 242.68734358 -102.4140625 215.74609375 C-105.19080873 177.6704365 -95.04274782 142.72040455 -70.37890625 113.25878906 C-67.26764328 109.67219425 -64.00117679 106.24615646 -60.69921875 102.8359375 C-60.22226563 102.33320312 -59.7453125 101.83046875 -59.25390625 101.3125 C-47.46554174 88.89374167 -34.33624126 79.63577586 -19.69921875 70.8359375 C-18.71953125 70.24683594 -17.73984375 69.65773438 -16.73046875 69.05078125 C-16.06015625 68.64988281 -15.38984375 68.24898438 -14.69921875 67.8359375 C-15.28662896 62.95026602 -16.81521531 58.82986493 -18.82421875 54.3828125 C-19.45483463 52.94418899 -20.08502966 51.50538095 -20.71484375 50.06640625 C-21.70344472 47.82835069 -22.69631114 45.59242272 -23.69726562 43.35986328 C-32.82551574 22.92975498 -32.82551574 22.92975498 -28.70703125 11.09375 C-26.43933947 6.01341726 -22.92834834 2.13190631 -17.91015625 -0.46484375 C-12.1399109 -2.28970933 -5.57959092 -2.40624905 0 0 Z M-10.69921875 15.8359375 C-12.67833421 17.9818823 -12.67833421 17.9818823 -13.69921875 20.8359375 C-13.42950818 23.24812114 -13.42950818 23.24812114 -12.2890625 25.64453125 C-11.69907471 27.08481689 -11.69907471 27.08481689 -11.09716797 28.55419922 C-10.63584473 29.63717285 -10.17452148 30.72014648 -9.69921875 31.8359375 C-9.2017967 33.0883878 -8.70865202 34.34254323 -8.21923828 35.59814453 C-6.88527084 39.01294409 -5.51096657 42.4094476 -4.11791992 45.80053711 C-3.5417301 47.21234182 -2.97283864 48.62714484 -2.41088867 50.04467773 C-1.58770344 52.11914251 -0.74190361 54.18302561 0.109375 56.24609375 C0.84885376 58.07346069 0.84885376 58.07346069 1.60327148 59.93774414 C3.05201852 62.98879429 3.05201852 62.98879429 5.85888672 64.20825195 C6.66471191 64.41538818 7.47053711 64.62252441 8.30078125 64.8359375 C9.04714844 65.04476562 9.79351562 65.25359375 10.5625 65.46875 C16.58446843 66.69059867 22.42662346 67.01718517 28.55078125 67.0234375 C29.68519653 67.024646 29.68519653 67.024646 30.8425293 67.02587891 C35.41948293 66.98065706 39.78481241 66.58262547 44.30078125 65.8359375 C44.50469482 65.30911377 44.7086084 64.78229004 44.91870117 64.23950195 C47.09216634 58.71147772 49.40718963 53.25676442 51.7890625 47.81640625 C52.73977588 45.63029456 53.68944561 43.44373188 54.63891602 41.25708008 C55.29320727 39.75717762 55.95180173 38.2591456 56.61450195 36.76293945 C57.58088488 34.57758814 58.53014328 32.38546323 59.4765625 30.19140625 C59.77540848 29.5267485 60.07425446 28.86209076 60.38215637 28.17729187 C62.01015976 24.35446468 62.76880117 21.80178235 61.30078125 17.8359375 C60.31078125 16.8459375 60.31078125 16.8459375 59.30078125 15.8359375 C55.80659754 16.04770621 53.08524828 17.39801037 49.98828125 18.8984375 C44.00220925 21.61397347 39.24954721 21.68894272 32.98828125 19.4609375 C30.45572228 18.44380428 28.61493924 17.37870949 26.30078125 15.8359375 C21.82793503 16.12764486 19.03901294 17.47494907 15.30078125 19.8359375 C10.49691054 21.65809536 5.39188857 21.73392052 0.69921875 19.71875 C-1.01876777 18.82174819 -2.72095312 17.893542 -4.40234375 16.9296875 C-6.87712616 15.54931511 -6.87712616 15.54931511 -10.69921875 15.8359375 Z M-7.69921875 83.3359375 C-8.55253784 83.87734375 -8.55253784 83.87734375 -9.4230957 84.4296875 C-11.18836726 85.55524047 -12.94416442 86.69453508 -14.69921875 87.8359375 C-15.74464844 88.50625 -16.79007812 89.1765625 -17.8671875 89.8671875 C-28.26655197 96.64762695 -37.61087888 104.39566261 -46.69921875 112.8359375 C-47.60607422 113.66158203 -47.60607422 113.66158203 -48.53125 114.50390625 C-69.06984379 133.98430551 -84.86964149 164.26100078 -85.9375 192.8203125 C-86.53496563 223.75934328 -76.62373454 249.19486127 -55.07421875 271.8359375 C-40.92988805 285.59216157 -23.59621167 294.51738086 -4.69921875 299.8359375 C-3.61382812 300.155625 -2.5284375 300.4753125 -1.41015625 300.8046875 C27.32369237 307.93860854 58.46284355 301.94393569 83.79370117 287.30957031 C89.77718379 283.70050965 95.1481034 279.55987513 100.30078125 274.8359375 C101.68716797 273.57136719 101.68716797 273.57136719 103.1015625 272.28125 C121.00620692 255.19383002 133.76599409 230.69483591 134.50390625 205.6484375 C134.65683874 194.30221068 134.35476801 183.83028982 131.30078125 172.8359375 C130.84251953 171.09957031 130.84251953 171.09957031 130.375 169.328125 C125.42283635 152.65283942 116.6773516 136.95597606 105.30078125 123.8359375 C104.86797852 123.33304199 104.43517578 122.83014648 103.98925781 122.31201172 C93.10641796 109.75580606 81.08247552 99.38465353 67.27832031 90.17236328 C65.51735808 88.98230065 63.7928197 87.7387403 62.07421875 86.48828125 C54.58119193 81.40877655 49.26385909 81.49844271 40.45654297 82.61181641 C28.65289958 83.83896755 17.03794757 83.04826119 5.48828125 80.4921875 C-0.32438917 79.29546124 -2.8166501 80.22449669 -7.69921875 83.3359375 Z " fill="#000000" transform="translate(278.69921875,1.1640625)"/>
<path d="M0 0 C3.19763779 2.18785743 3.88264374 3.44522496 4.6875 7.25 C2.86418205 17.19537062 -10.24232249 26.48384026 -17.21875 33.52734375 C-17.89864487 34.21381044 -18.57853973 34.90027714 -19.27903748 35.60754585 C-22.86926262 39.23016459 -26.46341985 42.84883755 -30.06005859 46.46508789 C-33.02826931 49.45119466 -35.98770371 52.4456116 -38.93994141 55.44750977 C-42.52035832 59.08805065 -46.11522038 62.7137105 -49.72096252 66.32916451 C-51.08801565 67.70477165 -52.44993174 69.08550414 -53.8065033 70.4714489 C-55.70158392 72.40538219 -57.61468031 74.31958366 -59.53320312 76.23022461 C-60.08613541 76.8031575 -60.63906769 77.37609039 -61.20875549 77.96638489 C-64.92319864 81.61284321 -67.59462434 82.905346 -73 83 C-75.94755732 81.65437601 -77.54277272 80.91445456 -79 78 C-79.51787425 74.76328595 -79.80994253 72.21853434 -77.92474365 69.38230896 C-71.39383608 62.18929499 -64.50722248 55.3429772 -57.640625 48.47265625 C-56.24526861 47.07408242 -54.8499858 45.67543517 -53.45477295 44.27671814 C-50.54502285 41.36100954 -47.63324311 38.44734537 -44.72021484 35.53491211 C-40.98369372 31.79849323 -37.25413618 28.05520444 -33.52624893 24.31017399 C-30.65411631 21.42694917 -27.77747698 18.54825406 -24.8995285 15.67083549 C-23.52157807 14.29170379 -22.1452517 12.91094746 -20.77057648 11.5285511 C-18.85597818 9.6041953 -16.93519673 7.68623116 -15.01269531 5.76977539 C-14.44538193 5.1968425 -13.87806854 4.62390961 -13.29356384 4.03361511 C-8.7880704 -0.43581984 -6.23326037 -1.65372214 0 0 Z " fill="#000000" transform="translate(340,153)"/>
<path d="M0 0 C5.96505384 3.58658301 9.97251894 8.80461 12.08984375 15.41015625 C13.79477092 22.72302567 12.31094255 29.01607335 8.5625 35.4375 C4.07257678 40.52732945 -0.61677372 44.01677982 -7.48828125 44.7734375 C-15.71319911 44.87193951 -21.29072093 44.30453604 -27.40625 38.6015625 C-33.03485648 32.58079901 -34.96445881 27.24747609 -34.7421875 19.0234375 C-33.84831596 11.43698934 -30.26532282 6.66646432 -24.53515625 1.84765625 C-17.55230506 -2.84658822 -7.70179508 -3.46432095 0 0 Z M-15.8125 17.0625 C-17.75101084 19.38845516 -17.75101084 19.38845516 -17.3125 22.5625 C-16.65441176 25.53431373 -16.65441176 25.53431373 -14.4375 27.4375 C-10.78247302 27.91424265 -9.06323725 27.87070271 -6 25.75 C-4.18698142 23.54852813 -4.18698142 23.54852813 -4.5 20.875 C-5.50770428 18.25496887 -6.11700377 17.01212244 -8.4375 15.4375 C-11.7600955 14.84113671 -13.01205503 15.14640607 -15.8125 17.0625 Z " fill="#000000" transform="translate(341.4375,200.5625)"/>
<path d="M0 0 C5.78520306 2.93917293 8.92156872 7.2010214 12.0625 12.75 C14.13788287 19.55264385 14.01290047 26.0652841 11.15625 32.625 C7.88463806 38.7460804 3.6485672 42.24615903 -2.8125 44.4375 C-9.62712044 46.0422332 -15.57131078 45.72647202 -21.8125 42.4375 C-27.70260105 38.34944035 -31.87827441 34.15276457 -33.30859375 26.93359375 C-34.40175902 18.83064707 -33.11028412 13.05825074 -28.75 6.1875 C-21.14138483 -1.9434977 -10.2188251 -3.94350633 0 0 Z M-15.1875 17.625 C-17.01854746 20.27521061 -17.01854746 20.27521061 -16.875 23.0625 C-15.43447217 26.28250339 -14.0827935 27.17397751 -10.8125 28.4375 C-7.63814566 27.62545587 -6.13069425 26.75569425 -3.8125 24.4375 C-3.89993691 20.90855052 -3.89993691 20.90855052 -4.8125 17.4375 C-9.01879074 14.63330617 -11.33499437 14.07663956 -15.1875 17.625 Z " fill="#000000" transform="translate(285.8125,145.5625)"/>
</svg>
